<?xml version="1.0" encoding="utf-8"?>
<!-- Generator: Adobe Illustrator 14.0.0, SVG Export Plug-In . SVG Version: 6.00 Build 43363)  -->
<!DOCTYPE svg PUBLIC "-//W3C//DTD SVG 1.1//EN" "http://www.w3.org/Graphics/SVG/1.1/DTD/svg11.dtd">
<svg version="1.1" id="Capa_1" xmlns="http://www.w3.org/2000/svg" xmlns:xlink="http://www.w3.org/1999/xlink" x="0px" y="0px"
	 width="53.226px" height="65.054px" viewBox="0 0 53.226 65.054" enable-background="new 0 0 53.226 65.054" xml:space="preserve">
<g>
	<polygon fill-rule="evenodd" clip-rule="evenodd" points="46.375,35.766 41.587,37.619 41.506,37.645 41.423,37.67 41.34,37.697 
		41.256,37.723 41.171,37.75 41.09,37.775 41.007,37.801 40.923,37.828 40.841,37.853 40.757,37.881 40.675,37.906 40.59,37.934 
		40.506,37.96 40.422,37.984 40.34,38.011 40.257,38.038 44.97,36.208 45.059,36.181 45.15,36.152 45.237,36.127 45.325,36.096 
		45.413,36.071 45.502,36.041 45.59,36.014 45.679,35.986 45.761,35.958 45.852,35.933 45.941,35.905 46.026,35.875 46.111,35.85 
		46.202,35.822 46.288,35.794 	"/>
	<polygon fill-rule="evenodd" clip-rule="evenodd" points="34.249,54.178 30.068,55.109 30.295,54.997 30.524,54.888 30.747,54.78 
		30.968,54.672 31.193,54.561 31.415,54.455 31.637,54.347 31.857,54.24 32.074,54.132 32.295,54.026 32.514,53.918 32.731,53.813 
		32.948,53.708 33.165,53.604 33.378,53.499 33.59,53.395 33.807,53.291 34.02,53.189 34.232,53.084 34.442,52.982 34.651,52.878 
		34.863,52.774 35.071,52.674 35.278,52.572 35.487,52.474 35.694,52.371 35.899,52.272 36.103,52.172 36.31,52.07 36.515,51.972 
		36.718,51.875 36.919,51.772 37.11,51.683 37.301,51.589 37.493,51.496 37.679,51.406 37.867,51.312 38.057,51.221 38.244,51.131 
		38.431,51.041 38.618,50.949 38.802,50.859 38.989,50.768 39.173,50.678 39.357,50.591 39.543,50.5 39.725,50.411 39.907,50.323 
		40.086,50.235 40.268,50.149 40.45,50.059 40.631,49.972 40.811,49.884 40.991,49.799 41.168,49.713 41.345,49.627 41.522,49.541 
		41.7,49.455 41.875,49.371 42.052,49.286 42.224,49.201 42.403,49.115 42.575,49.031 42.749,48.948 47.595,47.693 47.413,47.781 
		47.229,47.868 47.047,47.956 46.864,48.046 46.677,48.137 46.493,48.226 46.306,48.318 46.119,48.408 45.929,48.497 45.743,48.586 
		45.557,48.68 45.369,48.771 45.174,48.864 44.987,48.956 44.796,49.048 44.606,49.142 44.413,49.233 44.22,49.328 44.028,49.422 
		43.834,49.514 43.638,49.609 43.446,49.705 43.249,49.799 43.052,49.892 42.855,49.989 42.659,50.084 42.459,50.183 42.26,50.278 
		42.061,50.376 41.865,50.474 41.664,50.567 41.461,50.667 41.248,50.771 41.037,50.875 40.82,50.979 40.604,51.085 40.384,51.189 
		40.169,51.295 39.95,51.401 39.737,51.51 39.513,51.616 39.294,51.722 39.073,51.83 38.852,51.937 38.632,52.045 38.409,52.154 
		38.185,52.262 37.96,52.373 37.734,52.484 37.505,52.592 37.28,52.703 37.053,52.814 36.821,52.925 36.592,53.037 36.361,53.152 
		36.132,53.264 35.899,53.375 35.665,53.489 35.432,53.603 35.196,53.716 34.962,53.831 34.726,53.948 34.488,54.063 	"/>
	<polygon fill-rule="evenodd" clip-rule="evenodd" points="29.752,49.922 25.794,51.067 25.92,51.014 26.049,50.961 26.175,50.909 
		26.304,50.854 26.429,50.801 26.558,50.748 26.685,50.692 26.809,50.642 26.937,50.591 27.061,50.536 27.19,50.484 27.313,50.431 
		27.438,50.38 27.561,50.325 27.688,50.272 27.815,50.222 31.874,49.03 31.744,49.086 31.614,49.143 31.482,49.197 31.349,49.251 
		31.216,49.306 31.084,49.364 30.951,49.42 30.819,49.478 30.686,49.528 30.553,49.586 30.418,49.642 30.288,49.697 30.153,49.753 
		30.018,49.808 29.883,49.864 	"/>
	<polygon fill-rule="evenodd" clip-rule="evenodd" points="25.17,45.534 21.446,46.897 21.308,46.946 21.168,46.995 21.033,47.042 
		20.895,47.093 20.754,47.138 20.619,47.19 20.477,47.241 20.337,47.29 20.201,47.34 20.062,47.39 19.921,47.44 19.781,47.491 
		19.639,47.539 19.499,47.589 19.357,47.639 19.219,47.688 22.825,46.366 22.977,46.313 23.124,46.263 23.271,46.211 23.419,46.156 
		23.567,46.104 23.713,46.053 23.86,45.999 24.009,45.948 24.154,45.896 24.3,45.842 24.447,45.791 24.59,45.739 24.737,45.687 
		24.883,45.634 25.026,45.584 	"/>
	<linearGradient id="SVGID_1_" gradientUnits="userSpaceOnUse" x1="20.1216" y1="41.0894" x2="19.7511" y2="48.1595">
		<stop  offset="0" style="stop-color:#000000"/>
		<stop  offset="1" style="stop-color:#FFFFFF"/>
	</linearGradient>
	<polygon fill-rule="evenodd" clip-rule="evenodd" fill="url(#SVGID_1_)" points="22.825,46.366 19.219,47.688 19.148,47.531 
		19.08,47.375 19.013,47.217 18.944,47.057 18.877,46.901 18.809,46.746 18.74,46.589 18.672,46.431 18.604,46.275 18.537,46.12 
		18.468,45.961 18.403,45.807 18.333,45.648 18.264,45.492 18.2,45.337 18.132,45.182 18.063,45.025 17.996,44.871 17.926,44.717 
		17.861,44.56 17.795,44.406 17.728,44.252 17.661,44.096 17.595,43.942 17.527,43.79 17.459,43.634 17.39,43.479 17.326,43.327 
		17.258,43.174 17.191,43.019 17.125,42.867 17.057,42.713 20.554,41.129 20.624,41.29 20.696,41.453 20.763,41.615 20.836,41.775 
		20.904,41.936 20.975,42.1 21.042,42.261 21.12,42.425 21.185,42.586 21.256,42.749 21.33,42.912 21.4,43.074 21.47,43.238 
		21.542,43.401 21.613,43.565 21.683,43.729 21.755,43.891 21.827,44.058 21.897,44.218 21.968,44.384 22.042,44.548 22.112,44.714 
		22.18,44.878 22.252,45.043 22.327,45.207 22.397,45.374 22.47,45.537 22.537,45.705 22.61,45.869 22.682,46.035 22.752,46.201 	
		"/>
	<linearGradient id="SVGID_2_" gradientUnits="userSpaceOnUse" x1="17.7603" y1="42.8364" x2="17.5734" y2="41.9574">
		<stop  offset="0" style="stop-color:#000000"/>
		<stop  offset="1" style="stop-color:#000000"/>
	</linearGradient>
	<polygon fill-rule="evenodd" clip-rule="evenodd" fill="url(#SVGID_2_)" points="20.554,41.129 17.057,42.713 16.915,42.757 
		16.769,42.801 16.625,42.844 16.48,42.887 16.335,42.93 16.189,42.975 16.044,43.018 15.9,43.062 15.754,43.104 15.609,43.15 
		15.463,43.192 15.315,43.238 15.167,43.281 15.02,43.326 14.873,43.37 14.727,43.415 18.096,41.867 18.252,41.819 18.409,41.775 
		18.563,41.728 18.719,41.681 18.871,41.634 19.03,41.587 19.181,41.541 19.333,41.496 19.486,41.448 19.639,41.403 19.796,41.357 
		19.947,41.312 20.097,41.267 20.249,41.222 20.401,41.176 	"/>
	<linearGradient id="SVGID_3_" gradientUnits="userSpaceOnUse" x1="15.4976" y1="36.6621" x2="15.2474" y2="43.8255">
		<stop  offset="0" style="stop-color:#000000"/>
		<stop  offset="1" style="stop-color:#FFFFFF"/>
	</linearGradient>
	<polygon fill-rule="evenodd" clip-rule="evenodd" fill="url(#SVGID_3_)" points="18.096,41.867 14.727,43.415 14.66,43.257 
		14.591,43.104 14.527,42.947 14.462,42.792 14.399,42.639 14.333,42.483 14.267,42.329 14.202,42.176 14.137,42.022 14.068,41.868 
		14.004,41.715 13.939,41.56 13.875,41.406 13.814,41.254 13.746,41.1 13.68,40.945 13.616,40.794 13.551,40.643 13.488,40.489 
		13.421,40.337 13.357,40.185 13.294,40.032 13.228,39.881 13.166,39.728 13.098,39.576 13.036,39.424 12.972,39.274 12.909,39.121 
		12.843,38.972 12.78,38.821 12.715,38.668 12.654,38.518 15.916,36.712 15.983,36.872 16.05,37.031 16.12,37.19 16.186,37.348 
		16.254,37.508 16.318,37.667 16.386,37.828 16.456,37.988 16.522,38.146 16.591,38.308 16.659,38.468 16.725,38.628 16.795,38.788 
		16.86,38.948 16.929,39.108 16.998,39.27 17.064,39.431 17.134,39.593 17.204,39.754 17.27,39.916 17.338,40.077 17.41,40.239 
		17.481,40.401 17.548,40.561 17.617,40.726 17.683,40.887 17.751,41.051 17.821,41.213 17.891,41.376 17.96,41.541 18.029,41.705 	
		"/>
	<linearGradient id="SVGID_4_" gradientUnits="userSpaceOnUse" x1="13.229" y1="38.6035" x2="12.8919" y2="37.2516">
		<stop  offset="0" style="stop-color:#000000"/>
		<stop  offset="1" style="stop-color:#000000"/>
	</linearGradient>
	<polygon fill-rule="evenodd" clip-rule="evenodd" fill="url(#SVGID_4_)" points="15.916,36.712 12.654,38.518 12.501,38.558 
		12.348,38.596 12.197,38.632 12.043,38.668 11.892,38.708 11.739,38.745 11.584,38.782 11.432,38.821 11.281,38.858 11.124,38.896 
		10.972,38.934 10.816,38.972 10.662,39.01 10.507,39.047 10.354,39.086 10.2,39.123 13.336,37.352 13.495,37.311 13.658,37.271 
		13.821,37.23 13.983,37.19 14.147,37.151 14.311,37.112 14.473,37.071 14.631,37.031 14.795,36.988 14.958,36.952 15.114,36.911 
		15.278,36.872 15.437,36.831 15.598,36.793 15.754,36.755 	"/>
	<linearGradient id="SVGID_5_" gradientUnits="userSpaceOnUse" x1="11.6724" y1="34.6216" x2="10.8404" y2="39.3396">
		<stop  offset="0" style="stop-color:#000000"/>
		<stop  offset="1" style="stop-color:#FFFFFF"/>
	</linearGradient>
	<polygon fill-rule="evenodd" clip-rule="evenodd" fill="url(#SVGID_5_)" points="13.336,37.352 10.2,39.123 10.132,38.965 
		10.071,38.809 10.003,38.654 9.941,38.495 9.875,38.339 9.813,38.184 9.749,38.026 9.684,37.871 9.619,37.715 9.557,37.559 
		9.492,37.402 9.428,37.246 9.363,37.093 9.297,36.936 9.233,36.783 9.17,36.627 12.25,34.724 12.319,34.886 12.385,35.05 
		12.453,35.213 12.52,35.375 12.587,35.539 12.654,35.703 12.724,35.868 12.792,36.031 12.858,36.197 12.931,36.362 12.996,36.526 
		13.062,36.69 13.131,36.854 13.198,37.022 13.265,37.187 	"/>
	<linearGradient id="SVGID_6_" gradientUnits="userSpaceOnUse" x1="9.5376" y1="36.5806" x2="9.3116" y2="35.2992">
		<stop  offset="0" style="stop-color:#000000"/>
		<stop  offset="1" style="stop-color:#000000"/>
	</linearGradient>
	<polygon fill-rule="evenodd" clip-rule="evenodd" fill="url(#SVGID_6_)" points="12.25,34.724 9.17,36.627 9.015,36.663 
		8.854,36.697 8.691,36.732 8.535,36.769 8.375,36.802 8.217,36.839 8.057,36.875 7.895,36.911 7.734,36.945 7.576,36.981 
		7.416,37.016 7.252,37.051 7.093,37.089 6.929,37.124 6.769,37.159 6.606,37.194 9.551,35.319 9.725,35.282 9.893,35.246 
		10.064,35.208 10.233,35.168 10.402,35.132 10.57,35.095 10.739,35.06 10.908,35.021 11.078,34.984 11.246,34.946 11.415,34.908 
		11.584,34.87 11.749,34.833 11.917,34.796 12.083,34.762 	"/>
	<linearGradient id="SVGID_7_" gradientUnits="userSpaceOnUse" x1="9.0991" y1="5.9697" x2="9.6692" y2="11.3937">
		<stop  offset="0" style="stop-color:#000000"/>
		<stop  offset="1" style="stop-color:#FFFFFF"/>
	</linearGradient>
	<polygon fill-rule="evenodd" clip-rule="evenodd" fill="url(#SVGID_7_)" points="11.476,9.459 8.429,12.626 8.379,12.513 
		8.327,12.398 8.274,12.287 8.221,12.173 8.17,12.06 8.117,11.946 8.066,11.833 8.013,11.72 7.96,11.607 7.911,11.495 7.858,11.382 
		7.808,11.27 7.754,11.156 7.705,11.043 7.65,10.93 7.599,10.816 10.597,7.555 10.652,7.675 10.706,7.792 10.76,7.912 10.816,8.031 
		10.869,8.149 10.924,8.267 10.977,8.385 11.032,8.504 11.09,8.625 11.141,8.743 11.198,8.862 11.25,8.982 11.306,9.101 
		11.363,9.22 11.415,9.34 	"/>
	<polygon fill-rule="evenodd" clip-rule="evenodd" points="15.321,9.504 12.083,12.667 11.974,12.666 11.863,12.666 11.751,12.666 
		11.639,12.663 11.528,12.661 11.415,12.66 11.302,12.66 11.19,12.657 11.076,12.657 10.96,12.655 10.847,12.653 10.736,12.652 
		10.625,12.651 10.507,12.651 10.392,12.648 10.281,12.647 10.166,12.647 10.052,12.646 9.936,12.644 9.822,12.643 9.708,12.643 
		9.592,12.641 9.477,12.638 9.363,12.638 9.247,12.637 9.128,12.634 9.015,12.634 8.895,12.633 8.783,12.631 8.665,12.629 
		8.549,12.627 8.429,12.626 11.476,9.459 11.595,9.46 11.718,9.462 11.839,9.465 11.965,9.465 12.083,9.465 12.209,9.467 
		12.33,9.469 12.451,9.47 12.575,9.471 12.695,9.474 12.816,9.476 12.937,9.476 13.056,9.478 13.178,9.478 13.298,9.481 
		13.42,9.481 13.539,9.481 13.658,9.483 13.781,9.486 13.9,9.487 14.017,9.487 14.137,9.489 14.256,9.491 14.375,9.491 
		14.494,9.492 14.612,9.495 14.731,9.497 14.847,9.497 14.97,9.497 15.083,9.501 15.205,9.502 	"/>
	<linearGradient id="SVGID_8_" gradientUnits="userSpaceOnUse" x1="8.4097" y1="1.542" x2="14.4873" y2="32.8086">
		<stop  offset="0" style="stop-color:#000000"/>
		<stop  offset="0.1702" style="stop-color:#393939"/>
		<stop  offset="0.3969" style="stop-color:#7F7F7F"/>
		<stop  offset="0.6015" style="stop-color:#B6B6B6"/>
		<stop  offset="0.7765" style="stop-color:#DEDEDE"/>
		<stop  offset="0.9151" style="stop-color:#F6F6F6"/>
		<stop  offset="1" style="stop-color:#FFFFFF"/>
	</linearGradient>
	<polygon fill-rule="evenodd" clip-rule="evenodd" fill="url(#SVGID_8_)" points="17.963,28.857 14.599,31.055 14.46,30.747 
		14.322,30.438 14.186,30.131 14.047,29.823 13.909,29.516 13.772,29.208 13.635,28.902 13.501,28.597 13.363,28.294 13.226,27.988 
		13.088,27.684 12.956,27.378 12.82,27.078 12.686,26.774 12.547,26.473 12.412,26.171 12.281,25.871 12.147,25.573 12.009,25.271 
		11.877,24.974 11.746,24.675 11.609,24.378 11.476,24.079 11.341,23.784 11.21,23.486 11.078,23.191 10.946,22.896 10.811,22.602 
		10.68,22.309 10.552,22.015 10.422,21.722 10.286,21.429 10.158,21.146 10.031,20.864 9.906,20.581 9.781,20.299 9.651,20.018 
		9.527,19.738 9.399,19.456 9.275,19.175 9.15,18.897 9.021,18.618 8.895,18.339 8.772,18.063 8.648,17.782 8.523,17.506 
		8.398,17.228 8.274,16.954 8.149,16.678 8.024,16.402 7.901,16.13 7.778,15.854 7.655,15.58 7.53,15.307 7.41,15.033 7.287,14.76 
		7.164,14.489 7.043,14.219 6.92,13.948 6.8,13.677 6.678,13.407 6.555,13.136 6.436,12.868 6.315,12.598 9.247,9.43 9.373,9.713 
		9.5,9.997 9.628,10.28 9.757,10.564 9.88,10.849 10.01,11.134 10.138,11.42 10.269,11.708 10.399,11.993 10.525,12.28 
		10.655,12.567 10.786,12.854 10.915,13.146 11.045,13.435 11.179,13.722 11.306,14.015 11.437,14.305 11.57,14.595 11.701,14.886 
		11.833,15.18 11.965,15.472 12.097,15.766 12.227,16.059 12.361,16.355 12.491,16.649 12.623,16.943 12.757,17.24 12.892,17.535 
		13.026,17.833 13.158,18.131 13.294,18.426 13.425,18.725 13.565,19.034 13.702,19.342 13.839,19.651 13.981,19.961 14.12,20.269 
		14.258,20.581 14.399,20.892 14.539,21.203 14.678,21.514 14.819,21.83 14.961,22.142 15.1,22.456 15.242,22.771 15.381,23.085 
		15.522,23.402 15.665,23.719 15.809,24.036 15.948,24.354 16.092,24.671 16.231,24.991 16.377,25.309 16.518,25.628 16.664,25.948 
		16.809,26.271 16.952,26.592 17.095,26.916 17.239,27.237 17.382,27.56 17.53,27.884 17.674,28.208 17.82,28.533 	"/>
	<polygon fill-rule="evenodd" clip-rule="evenodd" points="15.623,29.268 12.376,31.443 12.227,31.472 12.073,31.497 11.92,31.525 
		11.767,31.55 11.615,31.577 11.466,31.604 11.309,31.631 11.158,31.657 11.004,31.686 10.853,31.712 10.695,31.738 10.543,31.765 
		10.387,31.792 10.233,31.82 10.077,31.846 9.92,31.875 9.762,31.903 9.609,31.93 9.453,31.959 9.293,31.985 9.139,32.014 
		8.982,32.04 8.826,32.069 8.668,32.095 8.509,32.125 8.35,32.152 8.194,32.18 8.034,32.207 7.875,32.237 7.715,32.264 
		7.556,32.292 7.394,32.319 10.382,30.19 10.552,30.159 10.722,30.131 10.887,30.103 11.053,30.07 11.223,30.041 11.387,30.012 
		11.554,29.983 11.72,29.953 11.885,29.925 12.053,29.895 12.218,29.865 12.385,29.836 12.547,29.809 12.713,29.779 12.876,29.75 
		13.042,29.72 13.206,29.692 13.369,29.663 13.535,29.634 13.695,29.605 13.858,29.577 14.018,29.548 14.18,29.52 14.343,29.491 
		14.505,29.463 14.666,29.435 14.824,29.408 14.984,29.379 15.147,29.35 15.306,29.322 15.466,29.296 	"/>
	<polygon fill-rule="evenodd" clip-rule="evenodd" points="23.114,34.83 19.489,36.728 19.357,36.761 19.226,36.793 19.095,36.824 
		18.963,36.854 18.832,36.888 18.697,36.92 18.565,36.952 18.435,36.985 18.299,37.016 18.165,37.049 18.033,37.081 17.9,37.112 
		17.77,37.145 17.633,37.178 17.502,37.212 17.367,37.243 20.877,35.372 21.019,35.336 21.16,35.304 21.3,35.269 21.439,35.235 
		21.579,35.2 21.72,35.167 21.859,35.132 22,35.098 22.141,35.065 22.28,35.032 22.42,34.997 22.559,34.964 22.699,34.931 
		22.837,34.898 22.974,34.863 	"/>
	<polygon fill-rule="evenodd" clip-rule="evenodd" points="20.877,35.372 17.367,37.243 17.312,37.119 17.254,36.996 17.198,36.868 
		17.146,36.743 17.088,36.619 17.033,36.496 16.979,36.371 16.921,36.246 16.862,36.122 16.809,35.998 16.752,35.873 16.702,35.751 
		16.644,35.625 16.585,35.502 16.532,35.375 16.48,35.254 16.423,35.132 16.367,35.006 16.312,34.885 16.258,34.762 16.202,34.638 
		16.144,34.514 16.092,34.391 16.037,34.268 15.98,34.146 15.928,34.023 15.874,33.899 15.816,33.777 15.76,33.654 15.708,33.531 
		15.652,33.41 15.598,33.287 19.016,31.207 19.072,31.337 19.134,31.465 19.191,31.594 19.248,31.723 19.307,31.853 19.363,31.982 
		19.42,32.111 19.479,32.239 19.536,32.369 19.595,32.5 19.65,32.628 19.711,32.758 19.768,32.89 19.824,33.017 19.884,33.148 
		19.943,33.278 19.999,33.409 20.057,33.54 20.116,33.667 20.179,33.8 20.233,33.93 20.295,34.061 20.35,34.191 20.41,34.322 
		20.465,34.454 20.529,34.585 20.583,34.716 20.642,34.847 20.699,34.978 20.761,35.108 20.821,35.241 	"/>
	<polygon fill-rule="evenodd" clip-rule="evenodd" points="19.016,31.207 15.598,33.287 15.463,33.313 15.326,33.342 15.184,33.369 
		15.05,33.398 14.908,33.424 14.772,33.453 14.631,33.479 14.492,33.507 14.353,33.536 14.212,33.564 14.074,33.589 13.935,33.618 
		13.791,33.646 13.653,33.673 13.514,33.702 13.375,33.73 16.675,31.674 16.823,31.645 16.969,31.612 17.116,31.584 17.264,31.556 
		17.412,31.527 17.56,31.497 17.707,31.468 17.853,31.439 17.999,31.411 18.145,31.382 18.29,31.352 18.435,31.324 18.583,31.294 
		18.728,31.264 18.871,31.236 	"/>
	<polygon fill-rule="evenodd" clip-rule="evenodd" points="16.675,31.674 13.375,33.73 13.309,33.585 13.249,33.442 13.184,33.299 
		13.121,33.157 13.059,33.012 12.998,32.87 12.937,32.727 12.873,32.583 12.809,32.442 12.749,32.299 12.686,32.157 12.623,32.014 
		12.563,31.87 12.498,31.729 12.437,31.587 12.376,31.443 15.623,29.268 15.691,29.417 15.754,29.566 15.821,29.715 15.886,29.865 
		15.952,30.016 16.015,30.165 16.084,30.316 16.15,30.467 16.213,30.617 16.278,30.767 16.344,30.918 16.412,31.069 16.48,31.219 
		16.544,31.37 16.611,31.522 	"/>
	<linearGradient id="SVGID_9_" gradientUnits="userSpaceOnUse" x1="6.4644" y1="28.1162" x2="6.953" y2="37.4403">
		<stop  offset="0" style="stop-color:#000000"/>
		<stop  offset="1" style="stop-color:#FFFFFF"/>
	</linearGradient>
	<polygon fill-rule="evenodd" clip-rule="evenodd" fill="url(#SVGID_9_)" points="3.983,30.647 3.968,30.616 3.958,30.583 
		3.941,30.547 3.929,30.513 3.916,30.478 3.9,30.441 3.886,30.408 3.873,30.372 6.674,28.138 6.689,28.175 6.705,28.211 
		6.719,28.25 6.735,28.287 6.748,28.324 6.764,28.36 6.775,28.397 6.792,28.431 6.848,28.567 6.904,28.708 6.958,28.847 
		7.012,28.986 7.068,29.126 7.125,29.265 7.181,29.407 7.242,29.546 7.293,29.686 7.352,29.827 7.41,29.968 7.463,30.108 
		7.521,30.249 7.578,30.388 7.632,30.53 7.692,30.669 7.749,30.814 7.803,30.956 7.867,31.102 7.921,31.246 7.98,31.39 
		8.036,31.534 8.093,31.677 8.152,31.821 8.211,31.968 8.265,32.111 8.327,32.257 8.383,32.402 8.44,32.546 8.5,32.691 
		8.559,32.837 8.615,32.982 8.673,33.127 8.732,33.274 8.79,33.419 8.849,33.564 8.906,33.709 8.964,33.856 9.026,34 9.082,34.147 
		9.139,34.293 9.203,34.439 9.258,34.585 9.319,34.731 9.375,34.878 9.432,35.024 9.495,35.173 9.551,35.319 6.606,37.194 
		6.55,37.056 6.495,36.913 6.439,36.776 6.383,36.634 6.327,36.496 6.269,36.357 6.214,36.218 6.16,36.08 6.104,35.941 
		6.049,35.803 5.993,35.665 5.941,35.526 5.881,35.388 5.827,35.249 5.773,35.11 5.715,34.972 5.662,34.835 5.608,34.696 
		5.552,34.559 5.495,34.421 5.441,34.285 5.386,34.147 5.33,34.01 5.275,33.872 5.222,33.736 5.166,33.597 5.111,33.46 
		5.057,33.324 5,33.187 4.947,33.049 4.891,32.913 4.839,32.775 4.785,32.645 4.733,32.51 4.676,32.375 4.622,32.24 4.571,32.11 
		4.517,31.975 4.464,31.843 4.41,31.708 4.355,31.576 4.302,31.443 4.25,31.312 4.196,31.177 4.142,31.045 4.088,30.914 
		4.038,30.782 	"/>
	<linearGradient id="SVGID_10_" gradientUnits="userSpaceOnUse" x1="30.1655" y1="49.3013" x2="29.0312" y2="60.0937">
		<stop  offset="0" style="stop-color:#000000"/>
		<stop  offset="1" style="stop-color:#FFFFFF"/>
	</linearGradient>
	<polygon fill-rule="evenodd" clip-rule="evenodd" fill="url(#SVGID_10_)" points="33.43,58.054 29.29,58.792 29.214,58.624 
		29.137,58.454 29.06,58.285 28.985,58.115 28.907,57.944 28.829,57.775 28.752,57.606 28.676,57.436 28.597,57.268 28.522,57.099 
		28.447,56.931 28.37,56.76 28.292,56.589 28.218,56.421 28.141,56.255 28.066,56.086 27.996,55.925 27.922,55.768 27.853,55.609 
		27.779,55.452 27.707,55.294 27.634,55.134 27.561,54.978 27.494,54.819 27.419,54.662 27.348,54.504 27.276,54.347 27.208,54.19 
		27.135,54.032 27.065,53.875 26.995,53.719 26.924,53.562 26.853,53.405 26.782,53.248 26.709,53.092 26.639,52.937 26.572,52.779 
		26.498,52.623 26.429,52.467 26.357,52.311 26.289,52.154 26.22,51.999 26.147,51.843 26.077,51.689 26.006,51.533 25.938,51.376 
		25.866,51.221 25.794,51.067 29.752,49.922 29.825,50.084 29.897,50.25 29.972,50.411 30.046,50.576 30.124,50.741 30.191,50.904 
		30.269,51.068 30.341,51.234 30.418,51.396 30.493,51.561 30.567,51.724 30.64,51.89 30.716,52.053 30.788,52.219 30.863,52.383 
		30.939,52.552 31.012,52.713 31.089,52.878 31.165,53.044 31.239,53.21 31.312,53.375 31.387,53.54 31.462,53.706 31.539,53.872 
		31.614,54.041 31.687,54.205 31.763,54.371 31.838,54.539 31.913,54.705 31.987,54.872 32.063,55.038 32.141,55.206 32.221,55.384 
		32.301,55.559 32.381,55.738 32.463,55.914 32.543,56.092 32.624,56.273 32.703,56.448 32.783,56.628 32.865,56.806 32.945,56.984 
		33.029,57.162 33.107,57.343 33.185,57.52 33.267,57.696 33.35,57.876 	"/>
	<linearGradient id="SVGID_11_" gradientUnits="userSpaceOnUse" x1="24.7896" y1="45.437" x2="24.184" y2="52.3588">
		<stop  offset="0" style="stop-color:#000000"/>
		<stop  offset="1" style="stop-color:#FFFFFF"/>
	</linearGradient>
	<polygon fill-rule="evenodd" clip-rule="evenodd" fill="url(#SVGID_11_)" points="27.532,50.852 23.686,51.948 23.616,51.789 
		23.545,51.628 23.473,51.47 23.404,51.311 23.332,51.15 23.261,50.992 23.19,50.833 23.122,50.672 23.051,50.515 22.978,50.356 
		22.908,50.197 22.837,50.038 22.768,49.88 22.699,49.722 22.625,49.563 22.559,49.404 22.486,49.248 22.417,49.091 22.348,48.933 
		22.278,48.776 22.206,48.618 22.139,48.461 22.069,48.301 22,48.147 21.929,47.99 21.859,47.833 21.792,47.675 21.72,47.521 
		21.651,47.366 21.583,47.208 21.512,47.052 21.446,46.897 25.17,45.534 25.247,45.695 25.316,45.861 25.392,46.026 25.462,46.189 
		25.533,46.355 25.608,46.519 25.682,46.686 25.753,46.851 25.829,47.014 25.898,47.178 25.975,47.347 26.049,47.51 26.122,47.675 
		26.197,47.843 26.27,48.008 26.342,48.175 26.416,48.341 26.49,48.507 26.561,48.672 26.639,48.841 26.709,49.007 26.789,49.174 
		26.86,49.342 26.937,49.508 27.009,49.676 27.087,49.844 27.157,50.011 27.231,50.179 27.306,50.348 27.381,50.515 27.459,50.682 	
		"/>
	<polygon fill-rule="evenodd" clip-rule="evenodd" points="47.595,47.693 42.749,48.948 42.682,48.819 42.612,48.692 42.547,48.563 
		42.476,48.435 42.409,48.309 42.34,48.179 42.278,48.054 42.207,47.923 42.138,47.799 42.073,47.67 42.004,47.544 41.938,47.417 
		41.873,47.29 41.806,47.163 41.737,47.036 41.671,46.908 41.607,46.781 41.536,46.653 41.47,46.527 41.406,46.399 41.337,46.275 
		41.275,46.15 41.207,46.024 41.14,45.896 41.073,45.77 41.005,45.643 40.942,45.52 40.874,45.391 40.808,45.267 40.741,45.141 
		40.675,45.017 40.608,44.887 45.342,43.42 45.413,43.554 45.483,43.685 45.555,43.818 45.622,43.95 45.693,44.084 45.761,44.215 
		45.829,44.348 45.904,44.48 45.973,44.613 46.041,44.747 46.111,44.879 46.186,45.011 46.254,45.146 46.324,45.279 46.392,45.413 
		46.462,45.547 46.533,45.68 46.604,45.81 46.674,45.948 46.745,46.081 46.814,46.213 46.886,46.349 46.954,46.482 47.027,46.617 
		47.099,46.751 47.169,46.884 47.241,47.02 47.313,47.153 47.38,47.287 47.451,47.422 47.523,47.559 	"/>
	<polygon fill-rule="evenodd" clip-rule="evenodd" points="45.342,43.42 40.608,44.887 40.694,44.854 40.784,44.818 40.873,44.781 
		40.958,44.745 41.047,44.709 41.136,44.671 41.224,44.635 41.312,44.6 41.399,44.563 41.487,44.525 41.575,44.488 41.664,44.455 
		41.747,44.416 41.834,44.381 41.923,44.344 42.008,44.306 46.82,42.807 46.727,42.845 46.634,42.884 46.543,42.923 46.453,42.96 
		46.357,42.998 46.27,43.036 46.173,43.076 46.086,43.115 45.992,43.152 45.901,43.189 45.806,43.228 45.716,43.268 45.622,43.306 
		45.529,43.343 45.435,43.382 	"/>
	<polygon fill-rule="evenodd" clip-rule="evenodd" points="44.97,36.208 40.257,38.038 40.152,37.846 40.046,37.652 39.942,37.462 
		39.838,37.266 39.737,37.074 39.626,36.882 39.521,36.688 39.422,36.498 39.317,36.306 39.212,36.115 39.109,35.923 39.004,35.733 
		38.901,35.542 38.795,35.353 38.693,35.159 38.589,34.972 38.487,34.78 38.384,34.59 38.281,34.402 38.177,34.213 38.077,34.024 
		37.971,33.837 37.867,33.648 37.767,33.46 37.667,33.271 37.563,33.083 37.463,32.896 37.361,32.707 37.256,32.522 37.156,32.333 
		37.053,32.146 36.954,31.96 36.854,31.777 36.754,31.594 36.655,31.411 36.555,31.227 36.456,31.045 36.358,30.864 36.259,30.681 
		36.161,30.5 36.062,30.319 35.964,30.137 35.864,29.955 35.763,29.775 35.665,29.593 35.57,29.414 35.469,29.232 35.373,29.053 
		35.274,28.874 35.174,28.693 35.079,28.513 34.979,28.333 34.884,28.155 34.785,27.976 34.686,27.796 34.59,27.617 34.494,27.437 
		34.399,27.26 34.299,27.081 34.201,26.902 34.105,26.725 34.008,26.546 33.912,26.37 33.816,26.191 38.193,23.737 38.295,23.923 
		38.4,24.11 38.5,24.299 38.6,24.486 38.703,24.675 38.802,24.861 38.908,25.05 39.008,25.237 39.111,25.428 39.212,25.617 
		39.317,25.804 39.419,25.992 39.521,26.183 39.626,26.37 39.729,26.559 39.832,26.75 39.937,26.939 40.036,27.128 40.14,27.319 
		40.246,27.51 40.35,27.7 40.454,27.892 40.558,28.082 40.661,28.273 40.763,28.463 40.869,28.656 40.975,28.848 41.077,29.04 
		41.183,29.231 41.29,29.423 41.391,29.616 41.496,29.809 41.601,30.006 41.709,30.204 41.817,30.401 41.923,30.597 42.032,30.793 
		42.138,30.991 42.248,31.191 42.352,31.387 42.459,31.588 42.57,31.786 42.68,31.983 42.789,32.183 42.894,32.383 43.002,32.58 
		43.111,32.781 43.219,32.98 43.33,33.181 43.438,33.38 43.546,33.582 43.654,33.782 43.762,33.983 43.873,34.184 43.985,34.385 
		44.092,34.585 44.204,34.789 44.312,34.989 44.423,35.194 44.531,35.396 44.643,35.598 44.75,35.801 44.864,36.004 	"/>
	<polygon fill-rule="evenodd" clip-rule="evenodd" points="46.82,42.807 42.008,44.306 41.914,44.119 41.812,43.937 41.714,43.75 
		41.614,43.567 41.513,43.384 41.417,43.201 41.316,43.016 41.219,42.832 41.121,42.648 41.021,42.463 40.923,42.281 40.828,42.098 
		40.727,41.915 40.631,41.732 40.535,41.552 40.434,41.367 40.339,41.184 40.241,41.004 40.14,40.82 40.043,40.639 39.948,40.458 
		39.849,40.276 39.752,40.097 39.656,39.913 39.559,39.734 39.461,39.555 39.367,39.373 39.269,39.191 39.173,39.012 39.076,38.833 
		38.978,38.654 38.885,38.474 43.529,36.667 43.631,36.854 43.731,37.046 43.83,37.235 43.936,37.422 44.038,37.614 44.136,37.806 
		44.238,37.993 44.342,38.184 44.444,38.374 44.543,38.565 44.646,38.757 44.75,38.948 44.853,39.139 44.958,39.328 45.059,39.522 
		45.16,39.714 45.264,39.906 45.367,40.097 45.469,40.29 45.574,40.483 45.679,40.676 45.777,40.867 45.882,41.062 45.986,41.254 
		46.09,41.446 46.195,41.64 46.297,41.837 46.402,42.027 46.506,42.223 46.611,42.419 46.714,42.612 	"/>
	<polygon fill-rule="evenodd" clip-rule="evenodd" points="38.193,23.737 33.816,26.191 33.725,26.203 33.638,26.217 33.551,26.23 
		33.466,26.242 33.375,26.255 33.289,26.269 33.201,26.283 33.111,26.294 33.022,26.306 32.932,26.319 32.845,26.333 32.753,26.344 
		32.667,26.358 32.579,26.37 32.488,26.383 32.4,26.395 36.704,23.954 36.798,23.939 36.891,23.927 36.983,23.913 37.08,23.899 
		37.17,23.887 37.264,23.874 37.357,23.86 37.45,23.846 37.542,23.834 37.64,23.819 37.732,23.806 37.822,23.792 37.915,23.779 
		38.006,23.764 38.099,23.751 	"/>
	<polygon fill-rule="evenodd" clip-rule="evenodd" points="36.704,23.954 32.4,26.395 32.342,26.287 32.282,26.179 32.225,26.069 
		32.165,25.961 32.108,25.854 32.047,25.745 31.993,25.635 31.935,25.528 31.874,25.417 31.816,25.312 31.757,25.203 31.7,25.095 
		31.64,24.987 31.584,24.88 31.525,24.771 31.465,24.663 35.721,22.13 35.783,22.243 35.843,22.356 35.903,22.471 35.966,22.583 
		36.027,22.699 36.089,22.812 36.147,22.924 36.21,23.04 36.272,23.155 36.333,23.267 36.396,23.382 36.458,23.494 36.518,23.609 
		36.582,23.724 36.641,23.838 	"/>
	<polygon fill-rule="evenodd" clip-rule="evenodd" points="35.721,22.13 31.465,24.663 31.375,24.675 31.284,24.685 31.193,24.697 
		31.104,24.708 31.012,24.72 30.92,24.732 30.833,24.742 30.74,24.754 30.647,24.766 30.555,24.775 30.461,24.788 30.375,24.8 
		30.278,24.811 30.188,24.824 30.097,24.835 30.004,24.844 34.182,22.32 34.278,22.309 34.373,22.297 34.47,22.284 34.569,22.273 
		34.666,22.259 34.764,22.249 34.856,22.237 34.955,22.225 35.051,22.212 35.144,22.2 35.242,22.188 35.337,22.177 35.432,22.165 
		35.53,22.153 35.625,22.141 	"/>
	<polygon fill-rule="evenodd" clip-rule="evenodd" points="36.969,27.577 32.652,29.838 32.559,29.855 32.465,29.874 32.374,29.892 
		32.28,29.91 32.186,29.928 32.092,29.945 31.997,29.963 31.906,29.981 31.808,30 31.715,30.016 31.619,30.034 31.525,30.053 
		31.43,30.07 31.333,30.088 31.239,30.106 31.148,30.123 35.381,27.876 35.484,27.859 35.583,27.84 35.682,27.82 35.783,27.801 
		35.881,27.781 35.979,27.765 36.081,27.745 36.18,27.727 36.281,27.708 36.378,27.69 36.48,27.671 36.577,27.652 36.675,27.634 
		36.771,27.613 36.871,27.596 	"/>
	<polygon fill-rule="evenodd" clip-rule="evenodd" points="35.381,27.876 31.148,30.123 31.061,29.963 30.976,29.801 30.893,29.64 
		30.81,29.479 30.724,29.318 30.639,29.158 30.555,28.999 30.469,28.838 30.387,28.676 30.302,28.517 30.222,28.36 30.138,28.198 
		30.053,28.039 29.969,27.879 29.886,27.719 29.802,27.561 29.718,27.402 29.636,27.243 29.554,27.084 29.472,26.926 29.388,26.767 
		29.304,26.609 29.221,26.452 29.139,26.294 29.058,26.136 28.973,25.979 28.893,25.82 28.807,25.665 28.728,25.504 28.648,25.349 
		28.561,25.19 28.479,25.033 32.579,22.52 32.665,22.686 32.751,22.851 32.837,23.015 32.921,23.182 33.011,23.347 33.096,23.513 
		33.185,23.679 33.27,23.846 33.356,24.013 33.446,24.179 33.534,24.345 33.618,24.511 33.708,24.679 33.795,24.845 33.883,25.015 
		33.969,25.181 34.058,25.346 34.145,25.516 34.233,25.682 34.32,25.852 34.41,26.019 34.494,26.186 34.584,26.354 34.673,26.522 
		34.761,26.692 34.85,26.86 34.936,27.03 35.023,27.198 35.115,27.368 35.205,27.539 35.292,27.708 	"/>
	<polygon fill-rule="evenodd" clip-rule="evenodd" points="32.579,22.52 28.479,25.033 28.421,24.923 28.363,24.812 28.303,24.701 
		28.245,24.59 28.192,24.479 28.131,24.367 28.071,24.257 28.018,24.145 27.958,24.038 27.901,23.927 27.841,23.816 27.785,23.707 
		27.729,23.596 27.67,23.485 27.611,23.374 27.555,23.264 31.604,20.658 31.664,20.773 31.722,20.889 31.784,21.004 31.843,21.121 
		31.908,21.236 31.965,21.353 32.028,21.469 32.087,21.585 32.149,21.703 32.21,21.818 32.27,21.934 32.332,22.052 32.395,22.17 
		32.456,22.287 32.515,22.403 	"/>
	<polygon fill-rule="evenodd" clip-rule="evenodd" points="31.604,20.658 27.555,23.264 27.373,23.285 27.19,23.305 27.008,23.325 
		26.823,23.342 26.639,23.36 26.455,23.381 26.27,23.401 26.083,23.419 25.898,23.438 25.71,23.458 25.526,23.476 25.336,23.494 
		25.152,23.516 24.962,23.533 24.776,23.554 24.583,23.572 28.473,20.981 28.674,20.961 28.874,20.942 29.072,20.921 29.267,20.9 
		29.465,20.881 29.664,20.861 29.862,20.841 30.058,20.82 30.251,20.799 30.445,20.778 30.639,20.759 30.834,20.739 31.026,20.718 
		31.216,20.698 31.409,20.681 	"/>
	<polygon fill-rule="evenodd" clip-rule="evenodd" points="31.358,26.648 27.324,28.956 27.219,28.973 27.114,28.992 27.009,29.009 
		26.904,29.027 26.802,29.044 26.695,29.062 26.591,29.081 26.486,29.097 26.38,29.115 26.275,29.133 26.168,29.149 26.067,29.167 
		25.956,29.187 25.851,29.203 25.742,29.222 25.637,29.24 29.585,26.948 29.701,26.927 29.809,26.908 29.922,26.891 30.034,26.872 
		30.143,26.852 30.256,26.833 30.366,26.814 30.477,26.797 30.588,26.776 30.7,26.76 30.81,26.74 30.92,26.722 31.029,26.706 
		31.142,26.685 31.249,26.664 	"/>
	<polygon fill-rule="evenodd" clip-rule="evenodd" points="29.585,26.948 25.637,29.24 25.55,29.064 25.462,28.892 25.378,28.717 
		25.29,28.545 25.203,28.372 25.115,28.198 25.026,28.026 24.941,27.85 24.855,27.678 24.769,27.505 24.683,27.333 24.598,27.162 
		24.51,26.99 24.424,26.816 24.337,26.645 24.25,26.473 24.167,26.301 24.082,26.131 23.997,25.958 23.909,25.789 23.824,25.617 
		23.741,25.447 23.651,25.276 23.569,25.108 23.484,24.937 23.397,24.766 23.312,24.597 23.229,24.429 23.14,24.259 23.056,24.09 
		22.972,23.921 22.887,23.751 26.69,21.171 26.779,21.347 26.867,21.526 26.959,21.704 27.048,21.882 27.135,22.06 27.227,22.238 
		27.316,22.416 27.407,22.596 27.497,22.774 27.588,22.956 27.676,23.134 27.767,23.312 27.855,23.494 27.946,23.673 28.036,23.854 
		28.126,24.036 28.218,24.216 28.305,24.397 28.398,24.578 28.488,24.759 28.579,24.941 28.671,25.122 28.762,25.302 28.851,25.484 
		28.944,25.667 29.035,25.849 29.128,26.032 29.218,26.214 29.309,26.396 29.402,26.581 29.497,26.764 	"/>
	<polygon fill-rule="evenodd" clip-rule="evenodd" points="26.69,21.171 22.887,23.751 22.848,23.676 22.81,23.596 22.771,23.518 
		22.731,23.439 22.693,23.36 22.653,23.283 22.615,23.205 22.578,23.125 26.36,20.513 26.402,20.594 26.446,20.675 26.486,20.759 
		26.529,20.841 26.567,20.921 26.609,21.004 26.654,21.089 	"/>
	<polygon fill-rule="evenodd" clip-rule="evenodd" points="26.36,20.513 22.578,23.125 22.501,22.976 22.424,22.825 22.35,22.674 
		22.273,22.523 22.195,22.374 22.122,22.221 22.044,22.071 21.968,21.919 25.723,19.241 25.803,19.4 25.882,19.558 25.962,19.717 
		26.043,19.878 26.122,20.036 26.202,20.195 26.283,20.354 	"/>
	<polygon fill-rule="evenodd" clip-rule="evenodd" points="25.723,19.241 21.968,21.919 21.764,21.937 21.564,21.953 21.361,21.972 
		21.155,21.988 20.951,22.004 20.744,22.021 20.538,22.041 20.331,22.059 20.125,22.076 19.917,22.091 19.711,22.111 19.502,22.13 
		19.293,22.147 19.08,22.165 18.871,22.184 18.66,22.202 22.24,19.539 22.462,19.521 22.682,19.499 22.904,19.479 23.125,19.46 
		23.345,19.442 23.563,19.422 23.785,19.404 23.999,19.386 24.217,19.367 24.433,19.35 24.65,19.331 24.869,19.313 25.08,19.297 
		25.295,19.277 25.51,19.258 	"/>
	<polygon fill-rule="evenodd" clip-rule="evenodd" points="26.122,27.539 22.345,29.802 22.23,29.823 22.114,29.842 21.997,29.861 
		21.878,29.883 21.764,29.901 21.644,29.921 21.527,29.943 21.411,29.961 21.29,29.983 21.173,30.003 21.054,30.023 20.938,30.044 
		20.817,30.065 20.697,30.086 20.579,30.106 20.46,30.127 24.133,27.881 24.258,27.859 24.385,27.836 24.51,27.814 24.635,27.794 
		24.761,27.772 24.883,27.75 25.008,27.729 25.133,27.708 25.256,27.686 25.38,27.664 25.505,27.644 25.629,27.622 25.75,27.603 
		25.876,27.582 25.996,27.56 	"/>
	<polygon fill-rule="evenodd" clip-rule="evenodd" points="24.133,27.881 20.46,30.127 20.342,29.878 20.225,29.633 20.104,29.385 
		19.989,29.136 19.871,28.891 19.754,28.646 19.636,28.398 19.521,28.155 19.402,27.907 19.285,27.664 19.168,27.418 19.054,27.175 
		18.936,26.931 18.821,26.687 18.705,26.443 18.591,26.201 18.475,25.958 18.36,25.717 18.247,25.475 18.127,25.233 18.017,24.992 
		17.9,24.752 17.785,24.51 17.671,24.272 17.557,24.032 17.441,23.792 17.331,23.554 17.217,23.314 17.1,23.076 16.987,22.839 
		16.878,22.601 16.765,22.363 20.243,19.708 20.361,19.959 20.483,20.207 20.601,20.458 20.719,20.709 20.838,20.961 20.962,21.211 
		21.081,21.464 21.204,21.715 21.321,21.97 21.439,22.223 21.562,22.476 21.683,22.728 21.806,22.984 21.926,23.237 22.044,23.493 
		22.169,23.748 22.29,24.003 22.409,24.259 22.531,24.515 22.653,24.772 22.775,25.028 22.902,25.287 23.023,25.544 23.145,25.802 
		23.271,26.062 23.389,26.321 23.515,26.58 23.639,26.839 23.762,27.098 23.884,27.358 24.009,27.621 	"/>
	<path fill-rule="evenodd" clip-rule="evenodd" d="M16.765,22.363L16.765,22.363L16.765,22.363z M20.243,19.708"/>
	<path fill-rule="evenodd" clip-rule="evenodd" d="M16.765,22.363L16.765,22.363L16.765,22.363z M20.243,19.708"/>
	<path fill-rule="evenodd" clip-rule="evenodd" d="M16.765,22.363L16.765,22.363L16.765,22.363z M20.243,19.708"/>
	<path fill-rule="evenodd" clip-rule="evenodd" d="M16.765,22.363L16.765,22.363L16.765,22.363z M20.243,19.708"/>
	<polygon fill-rule="evenodd" clip-rule="evenodd" points="20.243,19.708 16.765,22.363 16.706,22.245 16.648,22.125 16.591,22.003 
		16.535,21.885 16.476,21.763 16.42,21.645 16.363,21.526 16.307,21.406 16.246,21.287 16.189,21.167 16.133,21.049 16.078,20.929 
		16.019,20.81 15.964,20.692 15.912,20.573 15.854,20.455 19.283,17.699 19.342,17.824 19.402,17.948 19.463,18.074 19.523,18.2 
		19.58,18.325 19.639,18.449 19.703,18.576 19.76,18.701 19.82,18.825 19.88,18.952 19.94,19.077 19.999,19.204 20.062,19.328 
		20.125,19.454 20.18,19.582 	"/>
	<path fill-rule="evenodd" clip-rule="evenodd" d="M15.854,20.455L15.854,20.455L15.854,20.455z M19.283,17.699"/>
	<path fill-rule="evenodd" clip-rule="evenodd" d="M15.854,20.455L15.854,20.455L15.854,20.455z M19.283,17.699"/>
	<path fill-rule="evenodd" clip-rule="evenodd" d="M15.854,20.455L15.854,20.455L15.854,20.455z M19.283,17.699"/>
	<path fill-rule="evenodd" clip-rule="evenodd" d="M15.854,20.455L15.854,20.455L15.854,20.455z M19.283,17.699"/>
	<polygon fill-rule="evenodd" clip-rule="evenodd" points="19.283,17.699 15.854,20.455 15.733,20.207 15.614,19.956 15.497,19.711 
		15.378,19.46 15.257,19.213 15.143,18.966 15.02,18.72 14.903,18.472 14.786,18.228 14.667,17.982 14.548,17.737 14.437,17.492 
		14.32,17.247 14.199,17.001 14.085,16.759 13.969,16.516 13.852,16.272 13.736,16.03 13.619,15.787 13.501,15.545 13.387,15.303 
		13.272,15.062 13.158,14.821 13.042,14.579 12.927,14.339 12.809,14.1 12.695,13.86 12.58,13.621 12.466,13.383 12.354,13.146 
		12.239,12.906 12.125,12.667 15.362,9.504 15.482,9.754 15.6,10.004 15.719,10.256 15.842,10.507 15.959,10.759 16.085,11.01 
		16.204,11.262 16.327,11.516 16.447,11.768 16.566,12.023 16.69,12.276 16.81,12.531 16.932,12.787 17.053,13.042 17.179,13.295 
		17.304,13.553 17.423,13.809 17.548,14.067 17.669,14.323 17.791,14.579 17.915,14.836 18.042,15.097 18.161,15.354 18.286,15.614 
		18.409,15.872 18.534,16.134 18.66,16.392 18.785,16.653 18.908,16.916 19.034,17.176 19.157,17.436 	"/>
	<linearGradient id="SVGID_12_" gradientUnits="userSpaceOnUse" x1="17.5171" y1="24.8345" x2="37.9525" y2="41.9818">
		<stop  offset="0" style="stop-color:#000000"/>
		<stop  offset="1" style="stop-color:#FFFFFF"/>
	</linearGradient>
	<path fill-rule="evenodd" clip-rule="evenodd" fill="url(#SVGID_12_)" d="M15.362,9.504c0.672,0.01,1.34,0.017,1.997,0.027
		c1.278,2.616,2.586,5.293,3.919,8.038c1.192-0.078,2.352-0.155,3.489-0.23c0.32,0.633,0.636,1.262,0.956,1.902
		c1.693-0.143,3.335-0.281,4.919-0.415c0.321,0.608,0.642,1.22,0.962,1.831c0.54-0.055,1.074-0.109,1.605-0.167
		c0.521-0.053,1.036-0.103,1.552-0.156c0.317,0.597,0.642,1.194,0.96,1.796c0.503-0.062,1.003-0.126,1.499-0.186
		c0.321,0.599,0.646,1.193,0.973,1.793c0.481-0.07,0.966-0.142,1.446-0.207c1.075,1.958,2.167,3.94,3.278,5.964
		c1.137,2.054,2.285,4.145,3.457,6.271c-0.464,0.146-0.93,0.293-1.404,0.443c1.076,1.971,2.163,3.973,3.269,6.01
		c-0.467,0.196-0.945,0.391-1.419,0.588c0.739,1.378,1.481,2.77,2.232,4.178c0.4,0.742,0.805,1.489,1.201,2.236
		c-0.478,0.248-0.962,0.502-1.451,0.76c-1.925,1.012-3.957,2.08-6.095,3.201c-2.258,1.187-4.643,2.439-7.178,3.771
		c-0.688,0.358-1.389,0.731-2.1,1.102c-0.432-0.951-0.864-1.903-1.289-2.849c-0.808-1.783-1.602-3.542-2.389-5.283
		c-0.731,0.305-1.471,0.615-2.221,0.929c-0.802-1.794-1.583-3.57-2.361-5.317c-0.769,0.271-1.553,0.554-2.346,0.832
		c-0.763-1.768-1.521-3.519-2.271-5.237c-0.808,0.243-1.626,0.49-2.458,0.737c-0.737-1.745-1.466-3.462-2.181-5.154
		c-0.85,0.212-1.714,0.424-2.579,0.639c-0.364-0.881-0.729-1.763-1.086-2.628c-0.888,0.194-1.79,0.396-2.699,0.595
		c-0.627-1.569-1.249-3.115-1.859-4.65c-0.301-0.75-0.603-1.5-0.899-2.238c-0.038-0.093-0.075-0.195-0.118-0.292
		c2.768-0.428,5.408-0.831,7.925-1.216c0.337,0.771,0.683,1.561,1.023,2.345c0.789-0.14,1.571-0.274,2.341-0.41
		c-1.552-3.473-3.065-6.854-4.538-10.132c-1.43-3.184-2.828-6.281-4.179-9.295c0.746,0.011,1.49,0.018,2.229,0.029
		c-0.297-0.641-0.589-1.269-0.879-1.904c1.311,0.039,2.592,0.075,3.847,0.114c0.292,0.611,0.585,1.221,0.877,1.835
		c-1.253-0.017-2.534-0.028-3.845-0.045c1.772,3.845,3.607,7.842,5.507,11.975c1.973,4.293,4.013,8.761,6.131,13.396
		c-0.736,0.179-1.485,0.359-2.236,0.542c-0.629-1.404-1.247-2.793-1.861-4.165c-0.77,0.155-1.556,0.308-2.341,0.467
		c-0.354-0.81-0.703-1.608-1.053-2.406c-1.692,0.295-3.445,0.605-5.24,0.923c0.612,1.495,1.238,3.007,1.868,4.533
		c0.865-0.194,1.73-0.388,2.577-0.57c0.361,0.842,0.724,1.702,1.088,2.559c0.831-0.204,1.649-0.401,2.461-0.603
		c0.715,1.648,1.44,3.324,2.178,5.02c0.791-0.236,1.58-0.467,2.35-0.696c0.743,1.671,1.498,3.378,2.267,5.101
		c0.75-0.272,1.499-0.535,2.231-0.794c0.77,1.704,1.554,3.432,2.351,5.183c0.712-0.299,1.425-0.594,2.121-0.892
		c0.78,1.698,1.574,3.41,2.375,5.147c2.548-1.237,4.941-2.405,7.213-3.511c2.148-1.043,4.193-2.034,6.134-2.973
		c-0.761-1.44-1.507-2.862-2.253-4.273c0.495-0.204,0.989-0.407,1.478-0.614c-1.114-2.078-2.214-4.128-3.291-6.14
		c0.486-0.154,0.969-0.308,1.441-0.458c-1.176-2.171-2.336-4.305-3.475-6.399c-1.118-2.059-2.22-4.077-3.303-6.072
		c-0.489,0.073-0.989,0.145-1.489,0.216c-0.333-0.612-0.654-1.219-0.982-1.823c-0.509,0.062-1.022,0.125-1.539,0.19
		c0.914,1.729,1.845,3.478,2.787,5.257c-0.523,0.1-1.048,0.197-1.588,0.299c-0.947-1.813-1.883-3.593-2.803-5.357
		c-0.328-0.625-0.652-1.246-0.975-1.862c-1.021,0.107-2.064,0.216-3.131,0.324c0.948,1.857,1.908,3.746,2.885,5.667
		c-0.583,0.1-1.177,0.196-1.772,0.3c-0.981-1.957-1.944-3.885-2.896-5.777c-0.113-0.219-0.216-0.441-0.33-0.658
		c-0.209-0.423-0.422-0.85-0.637-1.271c-1.135,0.095-2.297,0.192-3.483,0.298c1.268,2.607,2.56,5.276,3.882,8
		c-0.653,0.111-1.314,0.226-1.988,0.342c-1.325-2.787-2.625-5.513-3.891-8.173l0,0c-0.321-0.675-0.643-1.341-0.96-2.008l0,0
		C17.947,14.903,16.638,12.168,15.362,9.504z"/>
	<radialGradient id="SVGID_13_" cx="38.2925" cy="51.9419" r="50.8268" gradientUnits="userSpaceOnUse">
		<stop  offset="0" style="stop-color:#FFFFFF"/>
		<stop  offset="0.4351" style="stop-color:#EDEDED"/>
		<stop  offset="1" style="stop-color:#CFCFCF"/>
	</radialGradient>
	<path fill-rule="evenodd" clip-rule="evenodd" fill="url(#SVGID_13_)" d="M25.723,19.241c1.265,2.514,2.547,5.083,3.862,7.707
		c0.596-0.104,1.189-0.201,1.772-0.3c-0.977-1.921-1.937-3.809-2.885-5.667c1.066-0.107,2.11-0.216,3.131-0.324
		c1.233,2.357,2.492,4.763,3.777,7.219c0.54-0.102,1.064-0.199,1.588-0.299c-0.942-1.779-1.873-3.528-2.787-5.257
		c0.517-0.065,1.03-0.128,1.539-0.19c0.328,0.604,0.649,1.211,0.982,1.823c0.5-0.071,1-0.143,1.489-0.216
		c1.083,1.995,2.185,4.013,3.303,6.072c1.139,2.094,2.299,4.228,3.475,6.399c-0.473,0.15-0.955,0.305-1.441,0.458
		c1.077,2.012,2.177,4.062,3.291,6.14c-0.488,0.207-0.982,0.41-1.478,0.614c0.746,1.411,1.492,2.833,2.253,4.273
		c-1.94,0.939-3.985,1.93-6.134,2.973c-2.271,1.106-4.665,2.274-7.213,3.511c-0.801-1.737-1.595-3.45-2.375-5.147
		c-0.696,0.298-1.409,0.593-2.121,0.892c-0.797-1.75-1.581-3.479-2.351-5.183c-0.732,0.26-1.481,0.522-2.231,0.794
		c-0.769-1.723-1.523-3.43-2.267-5.101c-0.77,0.229-1.559,0.46-2.35,0.696c-0.737-1.696-1.463-3.372-2.178-5.02
		c-0.812,0.202-1.63,0.399-2.461,0.603c-0.364-0.857-0.727-1.717-1.088-2.559c-0.847,0.182-1.712,0.376-2.577,0.57
		c-0.63-1.526-1.256-3.038-1.868-4.533c1.795-0.318,3.548-0.627,5.24-0.923c0.35,0.798,0.699,1.596,1.053,2.406
		c0.785-0.159,1.571-0.312,2.341-0.467c0.614,1.371,1.232,2.761,1.861,4.165c0.751-0.183,1.5-0.363,2.236-0.542
		c-2.118-4.635-4.158-9.103-6.131-13.396c-1.899-4.133-3.734-8.13-5.507-11.975c1.322,0.017,2.62,0.028,3.886,0.045
		c1.367,2.858,2.773,5.793,4.213,8.809c1.48,3.1,3,6.294,4.559,9.568c0.674-0.116,1.335-0.231,1.988-0.342
		c-1.322-2.724-2.614-5.392-3.882-8C23.426,19.434,24.588,19.336,25.723,19.241z"/>
	<radialGradient id="SVGID_14_" cx="35.5425" cy="44.7998" r="43.3804" gradientUnits="userSpaceOnUse">
		<stop  offset="0" style="stop-color:#FFFFFF"/>
		<stop  offset="0.23" style="stop-color:#FFFFFF"/>
		<stop  offset="0.84" style="stop-color:#CFCFCF"/>
		<stop  offset="1" style="stop-color:#CFCFCF"/>
	</radialGradient>
	<path fill-rule="evenodd" clip-rule="evenodd" fill="url(#SVGID_14_)" d="M25.723,19.241c1.265,2.514,2.547,5.083,3.862,7.707
		c0.596-0.104,1.189-0.201,1.772-0.3c-0.977-1.921-1.937-3.809-2.885-5.667c1.066-0.107,2.11-0.216,3.131-0.324
		c1.233,2.357,2.492,4.763,3.777,7.219c0.54-0.102,1.064-0.199,1.588-0.299c-0.942-1.779-1.873-3.528-2.787-5.257
		c0.517-0.065,1.03-0.128,1.539-0.19c0.328,0.604,0.649,1.211,0.982,1.823c0.5-0.071,1-0.143,1.489-0.216
		c0.591,1.087,1.187,2.18,1.789,3.283c-0.102,0.075-0.201,0.15-0.303,0.228c-5.447,4.114-10.17,16.947-11.045,20.212
		c-0.645-1.416-0.609-1.337-1.232-2.72c-0.732,0.26-1.481,0.522-2.231,0.794c-0.769-1.723-1.523-3.43-2.267-5.101
		c-0.77,0.229-1.559,0.46-2.35,0.696c-0.737-1.696-1.463-3.372-2.178-5.02c-0.812,0.202-1.63,0.399-2.461,0.603
		c-0.364-0.857-0.727-1.717-1.088-2.559c-0.847,0.182-1.712,0.376-2.577,0.57c-0.63-1.526-1.256-3.038-1.868-4.533
		c1.795-0.318,3.548-0.627,5.24-0.923c0.35,0.798,0.699,1.596,1.053,2.406c0.785-0.159,1.571-0.312,2.341-0.467
		c0.614,1.371,1.232,2.761,1.861,4.165c0.751-0.183,1.5-0.363,2.236-0.542c-2.118-4.635-4.158-9.103-6.131-13.396
		c-1.899-4.133-3.734-8.13-5.507-11.975c1.322,0.017,2.62,0.028,3.886,0.045c1.367,2.858,2.773,5.793,4.213,8.809
		c1.48,3.1,3,6.294,4.559,9.568c0.674-0.116,1.335-0.231,1.988-0.342c-1.322-2.724-2.614-5.392-3.882-8
		C23.426,19.434,24.588,19.336,25.723,19.241z"/>
	<linearGradient id="SVGID_15_" gradientUnits="userSpaceOnUse" x1="13.563" y1="12.2725" x2="43.1847" y2="53.0433">
		<stop  offset="0" style="stop-color:#000000"/>
		<stop  offset="0.1273" style="stop-color:#080808"/>
		<stop  offset="0.3262" style="stop-color:#1E1E1E"/>
		<stop  offset="0.5718" style="stop-color:#434343"/>
		<stop  offset="0.8519" style="stop-color:#747474"/>
		<stop  offset="1" style="stop-color:#929292"/>
	</linearGradient>
	<path fill-rule="evenodd" clip-rule="evenodd" fill="url(#SVGID_15_)" d="M15.242,9.864l0.293,0.004
		c1.224,2.552,2.474,5.162,3.748,7.832l0,0c0.317,0.667,0.639,1.333,0.96,2.008l0,0c1.266,2.661,2.565,5.386,3.891,8.173
		c0.576-0.1,1.15-0.199,1.715-0.295l0.153,0.315c-0.653,0.108-1.313,0.224-1.99,0.341c-1.326-2.787-2.621-5.509-3.887-8.171l0,0
		c-0.325-0.678-0.646-1.344-0.962-2.007l0,0C17.828,15.265,16.518,12.531,15.242,9.864L15.242,9.864z M25.723,19.241
		c-1.044,0.087-2.397,0.201-3.483,0.298l0.163,0.335c1.086-0.097,2.154-0.185,3.199-0.272c0.214,0.423,0.428,0.849,0.637,1.271
		c0.115,0.219,0.22,0.439,0.333,0.658c0.95,1.89,1.914,3.82,2.894,5.776c0.596-0.101,1.19-0.199,1.773-0.299l-0.159-0.315
		c-0.491,0.085-0.991,0.167-1.494,0.255c-0.981-1.957-1.944-3.885-2.896-5.777c-0.113-0.219-0.216-0.441-0.33-0.658
		c-0.156-0.312-0.311-0.624-0.467-0.935L25.723,19.241L25.723,19.241z M31.307,20.689l0.297-0.031l0.169,0.333
		c0.27,0.506,0.535,1.017,0.806,1.529c0.92,1.764,1.855,3.544,2.803,5.357c0.441-0.083,0.873-0.164,1.306-0.245l0.162,0.308
		c-0.523,0.1-1.051,0.199-1.588,0.298c-0.947-1.812-1.883-3.595-2.804-5.358c-0.329-0.625-0.651-1.245-0.974-1.859
		c-0.929,0.097-1.876,0.195-2.841,0.292l-0.17-0.332C29.437,20.884,30.381,20.785,31.307,20.689L31.307,20.689z M35.424,22.166
		l-1.242,0.154l0.172,0.324l1.249-0.153c0.322,0.603,0.651,1.213,0.979,1.822c0.5-0.069,1-0.142,1.493-0.215
		c1.083,1.995,2.182,4.013,3.303,6.073c1.089,2.004,2.196,4.048,3.322,6.123l0.27-0.085c-1.176-2.171-2.336-4.305-3.475-6.399
		c-1.057-1.949-2.101-3.862-3.13-5.754l-0.173-0.318l-0.295,0.043c-0.395,0.058-0.794,0.115-1.194,0.173
		c-0.27-0.501-0.538-1-0.81-1.499l-0.291,0.037L35.424,22.166L35.424,22.166z M46.101,35.852l0.153,0.275l-1.13,0.357l-0.154-0.275
		L46.101,35.852L46.101,35.852z M47.98,42.327l0.141,0.254c-0.384,0.16-0.774,0.322-1.167,0.481l-0.134-0.255
		C47.206,42.647,47.595,42.485,47.98,42.327L47.98,42.327z M15.365,29.312l0.142,0.315l0.254-0.044l0.915,2.091
		c0.785-0.159,1.571-0.312,2.341-0.467c0.614,1.371,1.232,2.761,1.861,4.165c0.665-0.161,1.327-0.322,1.979-0.479l0.136,0.298
		c-0.737,0.18-1.484,0.361-2.231,0.543c-0.629-1.404-1.251-2.792-1.867-4.165c-0.768,0.156-1.551,0.309-2.338,0.465
		c-0.354-0.808-0.702-1.607-1.05-2.407c-1.619,0.285-3.284,0.578-4.995,0.881l-0.129-0.317
		C12.085,29.887,13.751,29.593,15.365,29.312L15.365,29.312z M15.362,9.504c-1.16-0.015-2.676-0.03-3.886-0.045l0.165,0.364
		c1.214,0.017,2.733,0.033,3.894,0.045L15.362,9.504L15.362,9.504z M47.348,47.814c-0.72-1.36-1.424-2.702-2.123-4.032l0.255-0.105
		c0.696,1.326,1.4,2.664,2.115,4.017L47.348,47.814L47.348,47.814z M46.562,42.916l0.258-0.109
		c-1.064-1.982-2.113-3.941-3.142-5.862l-0.268,0.086C44.441,38.959,45.495,40.923,46.562,42.916z"/>
	<linearGradient id="SVGID_16_" gradientUnits="userSpaceOnUse" x1="29.0854" y1="34.5327" x2="49.6373" y2="53.6977">
		<stop  offset="0" style="stop-color:#000000"/>
		<stop  offset="1" style="stop-color:#CFCFCF"/>
	</linearGradient>
	<path fill-rule="evenodd" clip-rule="evenodd" fill="url(#SVGID_16_)" d="M41.192,26.35l1.726,3.145
		c1.137,2.054,2.285,4.145,3.457,6.271c-0.464,0.146-0.93,0.293-1.404,0.443c1.076,1.971,2.163,3.973,3.269,6.01
		c-0.467,0.196-0.945,0.391-1.419,0.588c0.739,1.378,1.481,2.77,2.232,4.178c0.4,0.742,0.805,1.489,1.201,2.236
		c-0.478,0.248-0.962,0.502-1.451,0.76c-1.925,1.012-3.957,2.08-6.095,3.201c-2.258,1.187-4.643,2.439-7.178,3.771
		c-0.688,0.358-1.389,0.731-2.1,1.102c-0.432-0.951-0.864-1.903-1.289-2.849c-0.719-1.583-1.423-3.145-2.123-4.693l-0.266-0.59
		l-1.334-2.936c-0.585,1.121-0.881,2.301-1.037,3.528l0.15,0.337l2.221-0.929c0.245-0.102,0.334-0.142,0.394-0.167
		c0.585-0.242,1.16-0.484,1.728-0.725c0.78,1.698,1.574,3.41,2.375,5.147c2.548-1.237,4.941-2.405,7.213-3.511
		c2.148-1.043,4.193-2.034,6.134-2.973c-0.761-1.44-1.507-2.862-2.253-4.273c0.495-0.204,0.989-0.407,1.478-0.614
		c-1.114-2.078-2.214-4.128-3.291-6.14c0.486-0.154,0.969-0.308,1.441-0.458c-1.176-2.171-2.336-4.305-3.475-6.399
		c-0.504-0.927-1.006-1.848-1.503-2.761C40.398,26.783,40.796,26.548,41.192,26.35z"/>
</g>
</svg>
