<?xml version="1.0" encoding="utf-8"?>
<!-- Generator: Adobe Illustrator 14.0.0, SVG Export Plug-In . SVG Version: 6.00 Build 43363)  -->
<!DOCTYPE svg PUBLIC "-//W3C//DTD SVG 1.1//EN" "http://www.w3.org/Graphics/SVG/1.1/DTD/svg11.dtd">
<svg version="1.1" id="Capa_1" xmlns="http://www.w3.org/2000/svg" xmlns:xlink="http://www.w3.org/1999/xlink" x="0px" y="0px"
	 width="94.309px" height="128.456px" viewBox="0 0 94.309 128.456" enable-background="new 0 0 94.309 128.456"
	 xml:space="preserve">
<g>
	<path fill="#808080" d="M83.979,60.199c3.176-0.006,6.188-2.112,6.186-5.286l-0.946-37.469c0-0.217-0.09-0.414-0.234-0.554
		L78.07,5.998c-0.15-0.151-0.352-0.226-0.549-0.226l-68.66,0.07c-3.175,0.003-5.276,2.104-5.273,5.282l0.043,43.325
		c0.003,3.173,2.474,5.821,5.646,5.817L83.979,60.199z"/>
	<path fill="#808080" d="M84.891,59.466c3.174-0.004,5.275-2.107,5.273-5.284l-0.032-37.469c-0.003-0.218-0.092-0.416-0.237-0.554
		L78.983,5.266c-0.152-0.151-0.351-0.228-0.55-0.224l-68.66,0.07c-3.175,0-5.276,2.106-5.274,5.28l0.042,43.875
		c0.003,3.174,2.108,5.275,5.283,5.27L84.891,59.466z"/>
	<path fill="#D7D7D7" d="M89.612,16.973l0.005,4.118l0.029,33.091c0.001,1.313-0.533,2.507-1.392,3.368
		c-0.861,0.86-2.051,1.396-3.364,1.397L9.824,59.021c-1.311,0-2.502-0.533-3.365-1.394c-0.771-0.771-1.281-1.803-1.38-2.95
		c-0.013-0.139-0.019-0.273-0.019-0.414L5.018,10.392C5.016,9.079,5.551,7.885,6.412,7.024C7.27,6.164,8.46,5.628,9.774,5.628
		l68.402-0.072c0.197,0,0.396,0.076,0.548,0.227L89.38,16.419C89.521,16.558,89.612,16.756,89.612,16.973z"/>
	<path opacity="0.5" fill="#FFFFFF" d="M89.612,16.973l0.005,4.118L5.079,54.677c-0.013-0.139-0.019-0.273-0.019-0.414L5.018,10.392
		C5.016,9.079,5.551,7.885,6.412,7.024C7.27,6.164,8.46,5.628,9.774,5.628l68.402-0.072c0.197,0,0.396,0.076,0.548,0.227
		L89.38,16.419C89.521,16.558,89.612,16.756,89.612,16.973z"/>
	<path fill-rule="evenodd" clip-rule="evenodd" fill="#FFFFFF" d="M17.189,51.919l36.169-0.037c2.222-0.001,4.04-1.835,4.038-4.075
		l-0.027-29.19c-0.003-2.242-1.823-4.072-4.047-4.07l-36.169,0.037c-2.223,0-4.041,1.835-4.039,4.076l0.028,29.189
		C13.143,50.089,14.966,51.921,17.189,51.919z"/>
	<path fill-rule="evenodd" clip-rule="evenodd" fill="#39322B" d="M16.325,50.983l36.168-0.036c2.224,0,4.041-1.836,4.038-4.074
		l-0.026-29.192c-0.002-2.24-1.823-4.072-4.048-4.07l-36.168,0.037c-2.224,0.001-4.042,1.835-4.039,4.078l0.028,29.189
		C12.28,49.153,14.101,50.986,16.325,50.983z"/>
	
		<linearGradient id="SVGID_1_" gradientUnits="userSpaceOnUse" x1="69.3418" y1="162.4224" x2="84.0796" y2="119.9965" gradientTransform="matrix(0.994 -0.1097 0.1097 0.994 -54.8641 -110.5397)">
		<stop  offset="0" style="stop-color:#F7EC85"/>
		<stop  offset="1" style="stop-color:#C68234"/>
	</linearGradient>
	<path fill-rule="evenodd" clip-rule="evenodd" fill="url(#SVGID_1_)" d="M25.818,36.959L25.818,36.959v-0.002l0.003-0.059v-0.009
		l-12.708,0.012l0.006,7.646l17.45-0.015c-0.849-0.413-1.618-0.964-2.278-1.623C26.767,41.39,25.822,39.284,25.818,36.959z
		 M27.393,32.238c0-0.122-0.009-0.232-0.025-0.335c-0.07-0.48-0.291-0.758-0.535-1.065c-0.413-0.517-0.876-1.098-0.994-2.439
		l-12.735,0.015l0.008,7.642l12.737-0.011c0.122-1.312,0.577-1.889,0.987-2.406C27.13,33.271,27.395,32.934,27.393,32.238z
		 M30.543,19.906l-17.447,0.015l0.007,7.647l12.708-0.012c-0.001-0.088-0.001-0.046-0.004-0.044c0,0,0-0.007,0-0.029h0.003
		c-0.003-2.324,0.937-4.429,2.457-5.952C28.929,20.869,29.696,20.318,30.543,19.906z M55.661,19.037l-0.001-1.208
		c-0.001-1.858-1.521-3.375-3.375-3.37l-35.822,0.033c-1.854,0-3.371,1.521-3.369,3.375l0.001,1.212L55.661,19.037z M55.67,27.523
		l-0.009-7.646l-17.762,0.021c0.851,0.414,1.619,0.958,2.279,1.618c1.523,1.521,2.469,3.628,2.47,5.954h0.002
		c0,0.02-0.002,0.013-0.001,0.07L55.67,27.523z M55.678,36.015l-0.007-7.642l-13.052,0.009c-0.118,1.341-0.579,1.92-0.991,2.445
		c-0.293,0.372-0.557,0.704-0.557,1.4c0.002,0.693,0.266,1.028,0.562,1.4c0.409,0.512,0.865,1.087,0.988,2.4L55.678,36.015z
		 M55.686,44.507l-0.008-7.646l-13.865,0.014v-0.149c-0.002-0.211-0.011-0.401-0.028-0.579c-0.102-1.102-0.473-1.573-0.812-1.998
		c-0.393-0.491-0.746-0.935-0.746-1.918c-0.001-0.99,0.349-1.433,0.741-1.928c0.392-0.495,0.835-1.05,0.833-2.609l0.002-0.011
		c0-0.041,0.002-0.081,0.002-0.105v-0.001c0-0.034,0.001-0.004,0-0.105h0.001c-0.001-2.091-0.852-3.982-2.228-5.354
		c-1.37-1.37-3.267-2.218-5.357-2.218v0.004h-0.001v-0.004c-2.088,0.007-3.983,0.855-5.352,2.229
		c-1.372,1.372-2.222,3.264-2.219,5.357h0.001v0.039c0,0,0,0,0,0.001c0,0.011,0,0.015,0,0.015v0.118v0.002v0.048
		c0.002,1.558,0.448,2.113,0.839,2.608c0.385,0.48,0.725,0.914,0.744,1.845c0.003,0.024,0.002,0.052,0.003,0.078
		c0,0.987-0.35,1.433-0.743,1.925c-0.391,0.493-0.836,1.054-0.833,2.613h-0.003v0.01l0.003,0.018v0.1l-0.003,0.055l0,0
		c0.004,2.089,0.854,3.982,2.229,5.354s3.268,2.214,5.359,2.214L55.686,44.507z M55.688,46.729l-0.002-1.379l-42.566,0.042
		l0.001,1.376c0.002,1.855,1.521,3.373,3.377,3.371l35.82-0.035C54.174,50.104,55.689,48.583,55.688,46.729z"/>
</g>
<g>
	<g>
		<path fill="#808080" d="M9.402,125.022c-3.174-0.003-6.189-2.107-6.184-5.284l0.944-37.465c0.002-0.221,0.088-0.415,0.236-0.557
			l10.913-10.891c0.152-0.151,0.35-0.229,0.549-0.229l68.661,0.072c3.173,0.002,5.274,2.106,5.271,5.28l-0.043,43.325
			c-0.003,3.177-2.472,5.823-5.646,5.819L9.402,125.022z"/>
		<path fill="#808080" d="M8.489,124.292c-3.174-0.002-5.274-2.109-5.271-5.282l0.034-37.469c0-0.219,0.088-0.416,0.234-0.554
			l10.913-10.895c0.151-0.15,0.352-0.226,0.549-0.226l68.66,0.069c3.175,0.005,5.275,2.106,5.273,5.282l-0.042,43.872
			c-0.005,3.177-2.11,5.276-5.284,5.272L8.489,124.292z"/>
		<path fill="#D7D7D7" d="M3.768,81.801l-0.003,4.116L3.736,119.01c-0.003,1.312,0.53,2.507,1.39,3.365
			c0.861,0.863,2.053,1.398,3.365,1.398l75.064,0.073c1.312,0.002,2.503-0.533,3.366-1.392c0.771-0.771,1.281-1.806,1.38-2.953
			c0.013-0.136,0.019-0.273,0.019-0.413l0.043-43.871c0-1.312-0.532-2.504-1.393-3.364c-0.859-0.864-2.05-1.397-3.363-1.4
			l-68.402-0.069c-0.199,0-0.396,0.075-0.548,0.227L4.001,81.245C3.859,81.387,3.768,81.582,3.768,81.801z"/>
		<path opacity="0.5" fill="#FFFFFF" d="M3.768,81.801l-0.003,4.116l84.537,33.585c0.013-0.136,0.019-0.273,0.019-0.413
			l0.043-43.871c0-1.312-0.532-2.504-1.393-3.364c-0.859-0.864-2.05-1.397-3.363-1.4l-68.402-0.069
			c-0.199,0-0.396,0.075-0.548,0.227L4.001,81.245C3.859,81.387,3.768,81.582,3.768,81.801z"/>
		<path fill-rule="evenodd" clip-rule="evenodd" fill="#FFFFFF" d="M76.191,116.748l-36.166-0.034
			c-2.225-0.004-4.042-1.839-4.04-4.078l0.027-29.191c0.004-2.238,1.823-4.07,4.047-4.069l36.17,0.033
			c2.221,0.002,4.039,1.837,4.038,4.078l-0.03,29.189C80.238,114.916,78.415,116.75,76.191,116.748z"/>
		<path fill-rule="evenodd" clip-rule="evenodd" fill="#39322B" d="M77.055,115.81l-36.166-0.033c-2.224,0-4.042-1.836-4.04-4.076
			l0.028-29.193c0.002-2.24,1.824-4.07,4.047-4.07l36.168,0.039c2.223,0.001,4.041,1.833,4.038,4.075l-0.027,29.191
			C81.101,113.981,79.279,115.813,77.055,115.81z"/>
		
			<linearGradient id="SVGID_2_" gradientUnits="userSpaceOnUse" x1="-246.8936" y1="192.7397" x2="-232.1561" y2="150.3148" gradientTransform="matrix(-0.994 -0.1097 -0.1097 0.994 -162.7668 -110.5397)">
			<stop  offset="0" style="stop-color:#F7EC85"/>
			<stop  offset="1" style="stop-color:#C68234"/>
		</linearGradient>
		<path fill-rule="evenodd" clip-rule="evenodd" fill="url(#SVGID_2_)" d="M65.091,107.74c-0.658,0.657-1.429,1.207-2.278,1.621
			l17.45,0.016l0.006-7.65l-12.708-0.009v0.007l0.002,0.059v0.004v-0.002C67.561,104.112,66.613,106.217,65.091,107.74z
			 M66.546,98.469c0.409,0.513,0.865,1.091,0.987,2.401l12.736,0.013l0.007-7.645l-12.732-0.015
			c-0.121,1.344-0.582,1.925-0.997,2.443c-0.243,0.305-0.464,0.585-0.535,1.063c-0.016,0.104-0.023,0.215-0.023,0.335
			C65.987,97.76,66.252,98.097,66.546,98.469z M65.113,86.355c1.52,1.524,2.46,3.631,2.458,5.958h0.002c0,0.02,0,0.025,0,0.025
			c-0.002-0.002-0.002-0.043-0.006,0.043l12.71,0.015l0.007-7.648l-17.447-0.017C63.685,85.146,64.452,85.695,65.113,86.355z
			 M80.286,83.905v-1.21c0.004-1.855-1.513-3.373-3.371-3.375l-35.817-0.035c-1.855-0.004-3.375,1.514-3.377,3.368l0,1.212
			L80.286,83.905z M50.731,92.364c0-0.051,0-0.046,0-0.068h0c0.002-2.326,0.947-4.429,2.472-5.952
			c0.661-0.658,1.43-1.206,2.279-1.618l-17.764-0.018l-0.007,7.646L50.731,92.364z M50.762,100.858
			c0.122-1.317,0.577-1.893,0.986-2.406c0.296-0.371,0.56-0.704,0.561-1.399c0-0.693-0.263-1.026-0.557-1.397
			c-0.414-0.523-0.873-1.102-0.99-2.445l-13.05-0.012l-0.006,7.646L50.762,100.858z M59.136,109.357
			c2.089,0.002,3.983-0.846,5.357-2.216c1.374-1.371,2.226-3.267,2.228-5.354v-0.002l-0.002-0.057v-0.098l0.004-0.022l-0.002-0.007
			h-0.002c0.002-1.559-0.441-2.113-0.832-2.61c-0.394-0.495-0.744-0.938-0.742-1.925c0-0.026,0-0.056,0.001-0.081
			c0.021-0.93,0.361-1.361,0.744-1.842c0.391-0.494,0.836-1.052,0.839-2.61v-0.044c0,0,0-0.002,0-0.004v-0.119c0,0,0-0.002,0-0.013
			l0,0V92.31h0.002c0.001-2.089-0.849-3.983-2.218-5.357c-1.37-1.374-3.264-2.222-5.353-2.228v0.004h-0.003v-0.004
			c-2.091,0-3.984,0.847-5.355,2.217c-1.375,1.374-2.226,3.265-2.228,5.354h0.002c-0.002,0.101,0,0.076-0.002,0.105v0.004
			c0.002,0.021,0.002,0.06,0.003,0.102l0.001,0.01c-0.001,1.561,0.441,2.121,0.835,2.614c0.391,0.493,0.742,0.938,0.741,1.924
			s-0.354,1.43-0.746,1.926c-0.338,0.421-0.711,0.894-0.812,1.998c-0.018,0.174-0.027,0.361-0.027,0.575l-0.003,0.149l-13.863-0.018
			l-0.006,7.649L59.136,109.357z M41.062,114.934l35.82,0.031c1.854,0.002,3.374-1.514,3.378-3.369l0.002-1.377l-42.568-0.04
			l-0.002,1.376C37.691,113.411,39.208,114.932,41.062,114.934z"/>
	</g>
	<g id="SIM_2_">
		
			<image overflow="visible" width="1302" height="968" id="SIM_1_" xlink:href="9FEB1FC7.png"  transform="matrix(-0.0346 -1.581679e-05 -1.732315e-05 0.0395 81.4775 78.0151)">
		</image>
	</g>
</g>
</svg>
