<?xml version="1.0" encoding="utf-8"?>
<!-- Generator: Adobe Illustrator 14.0.0, SVG Export Plug-In . SVG Version: 6.00 Build 43363)  -->
<!DOCTYPE svg PUBLIC "-//W3C//DTD SVG 1.1//EN" "http://www.w3.org/Graphics/SVG/1.1/DTD/svg11.dtd">
<svg version="1.1" id="Layer_1" xmlns="http://www.w3.org/2000/svg" xmlns:xlink="http://www.w3.org/1999/xlink" x="0px" y="0px"
	 width="33.544px" height="28.165px" viewBox="0 0 33.544 28.165" enable-background="new 0 0 33.544 28.165" xml:space="preserve">
<path fill-rule="evenodd" clip-rule="evenodd" fill="#FFFFFF" d="M22.302,8.939c0.403,0.018,0.806,0.036,1.208,0.053
	c0.235,0.166,0.555,0.349,0.699,0.593c0.317,0.955,0.196,2.444,0.127,3.55c0.106,0,0.211,0,0.318,0
	c0.604-1.186,3.736-3.175,4.895-4.195c0.403,0.018,0.806,0.036,1.208,0.053c1.405,0.607,1.082,2.47,1.082,4.251
	c0,3.926,0,7.853,0,11.779c-0.36,0.341-0.72,0.682-1.082,1.022c-0.402-0.019-0.805-0.036-1.208-0.054
	c-1.279-0.594-4.014-3.12-4.959-4.142c-0.064,0-0.126,0-0.19,0c-0.021,0.018-0.043,0.035-0.064,0.054
	c0.019,1.187,0.118,2.508-0.127,3.55c-0.254,0.179-0.509,0.358-0.763,0.538c-6.865,0-13.733,0-20.599,0
	c-0.199-0.315-0.491-0.378-0.699-0.646c0-5.272,0-10.544,0-15.814C3.004,9.209,2.868,9.02,4.184,8.886
	c-0.2-0.38-0.703-0.621-0.827-0.915c-0.258-0.613-0.254-2.828,0-3.442C3.48,4.233,5,2.746,5.328,2.538
	c0.233-0.036,0.466-0.071,0.699-0.107c0.17-0.162,0.339-0.323,0.509-0.483c0.678,0,1.355,0,2.034,0c0.529,0,1.06,0,1.589,0
	c0.267,0.067,0.308,0.317,0.509,0.43c0.512,0.284,1.101,0.312,1.462,0.699c0.392,0.42,0.588,0.957,1.144,1.237
	c0.043-0.019,0.085-0.036,0.128-0.054c0.785-1.955,5.042-3.317,7.691-1.722c1.709,1.028,2.718,3.314,1.845,5.594
	C22.789,8.521,22.402,8.403,22.302,8.939z M13.402,7.11c-0.53,0.556-1.061,1.111-1.59,1.667c0.012,0.28,0.039,0.473,0.254,0.593
	c0.6,0.306,1.886,0.146,2.479-0.055c0-0.17-0.995-2.103-1.081-2.151C13.444,7.146,13.422,7.128,13.402,7.11z M17.661,11.307
	c-0.783,0.017-1.567,0.035-2.352,0.053c-2.521,0-5.043,0-7.566,0c-0.84,0-2.112-0.127-2.733,0.107
	c-0.489,1.625-0.53,5.894-0.191,7.8c0.262,1.472-0.246,3.046,0.127,4.304c4.174,0.035,8.351,0.071,12.524,0.107
	c1.317,0.168,3.374,0.145,4.197-0.322c0-2.887,0-5.774,0-8.661c0.004-0.796,0.406-2.607-0.127-3.173
	C21.257,11.222,18.463,11.298,17.661,11.307z"/>
</svg>
