<?xml version="1.0" encoding="utf-8"?>
<!-- Generator: Adobe Illustrator 14.0.0, SVG Export Plug-In . SVG Version: 6.00 Build 43363)  -->
<!DOCTYPE svg PUBLIC "-//W3C//DTD SVG 1.1//EN" "http://www.w3.org/Graphics/SVG/1.1/DTD/svg11.dtd">
<svg version="1.1" id="Layer_1" xmlns="http://www.w3.org/2000/svg" xmlns:xlink="http://www.w3.org/1999/xlink" x="0px" y="0px"
	 width="35.714px" height="29.221px" viewBox="0 0 35.714 29.221" enable-background="new 0 0 35.714 29.221" xml:space="preserve">
<g>
	<path fill-rule="evenodd" clip-rule="evenodd" fill="#77787A" d="M33.709,16.464c-0.948-3.951-2.961-7.617-5.774-10.409
		c-1.24-1.231-2.581-2.308-4.064-3.158c-1.036-0.574-2.331-0.544-3.192,0.323c-0.519,0.522-0.761,1.223-0.714,1.907l-0.154-0.153
		c-0.972-0.964-2.539-0.959-3.504,0.013c-0.963,0.972-0.957,2.538,0.015,3.502l-0.878-0.872c-0.971-0.964-2.542-0.958-3.505,0.013
		c-0.965,0.972-0.957,2.541,0.014,3.504L6.237,5.463C5.266,4.499,3.698,4.504,2.734,5.476C1.77,6.447,1.776,8.015,2.747,8.979
		l10.027,9.951c0.488,0.484,0.485,1.268,0.005,1.751c-0.082,0.083-0.174,0.149-0.27,0.203l-3.48,1.484
		c-0.353,0.121-0.69,0.318-0.975,0.604c-0.963,0.971-0.957,2.538,0.014,3.502c0.729,0.724,1.802,0.901,2.699,0.533
		c4.304-1.391,8.38-1.883,12.974-0.501L33.709,16.464z"/>
	<path fill-rule="evenodd" clip-rule="evenodd" fill="#FFFFFF" d="M33.164,15.966c-0.951-3.687-2.886-7.128-5.548-9.771
		c-1.174-1.165-2.439-2.19-3.832-3.005c-0.973-0.552-2.175-0.547-2.96,0.243c-0.472,0.476-0.685,1.123-0.629,1.759l-0.146-0.145
		c-0.919-0.913-2.375-0.936-3.254-0.05c-0.879,0.885-0.845,2.341,0.074,3.254l-0.832-0.826c-0.919-0.913-2.378-0.935-3.256-0.05
		c-0.879,0.886-0.845,2.344,0.075,3.255l-5.41-5.369C6.526,4.351,5.07,4.328,4.191,5.214C3.312,6.099,3.345,7.556,4.264,8.468
		l9.492,9.42c0.461,0.458,0.473,1.186,0.036,1.627c-0.076,0.076-0.159,0.134-0.248,0.183l-3.207,1.317
		c-0.327,0.106-0.636,0.284-0.895,0.544c-0.878,0.885-0.845,2.341,0.074,3.254c0.69,0.685,1.69,0.868,2.517,0.542
		c3.975-1.216,7.753-1.603,12.046-0.236L33.164,15.966z"/>
</g>
</svg>
